
<svg xmlns="http://www.w3.org/2000/svg" width="32" height="32" viewBox="0 0 32 32" fill="none">
  <path d="M8 8C10.2091 8 12 6.20914 12 4C12 1.79086 10.2091 0 8 0C5.79086 0 4 1.79086 4 4C4 6.20914 5.79086 8 8 8Z" fill="#2D6A4F"/>
  <path d="M18 12C20.2091 12 22 10.2091 22 8C22 5.79086 20.2091 4 18 4C15.7909 4 14 5.79086 14 8C14 10.2091 15.7909 12 18 12Z" fill="#40916C"/>
  <path d="M13 20C15.2091 20 17 18.2091 17 16C17 13.7909 15.2091 12 13 12C10.7909 12 9 13.7909 9 16C9 18.2091 10.7909 20 13 20Z" fill="#40916C"/>
  <path d="M24 20C26.2091 20 28 18.2091 28 16C28 13.7909 26.2091 12 24 12C21.7909 12 20 13.7909 20 16C20 18.2091 21.7909 20 24 20Z" fill="#2D6A4F"/>
  <path d="M19 28C21.2091 28 23 26.2091 23 24C23 21.7909 21.2091 20 19 20C16.7909 20 15 21.7909 15 24C15 26.2091 16.7909 28 19 28Z" fill="#40916C"/>
  <path d="M10 32C12.2091 32 14 30.2091 14 28C14 25.7909 12.2091 24 10 24C7.79086 24 6 25.7909 6 28C6 30.2091 7.79086 32 10 32Z" fill="#2D6A4F"/>
  <path d="M26 32C28.2091 32 30 30.2091 30 28C30 25.7909 28.2091 24 26 24C23.7909 24 22 25.7909 22 28C22 30.2091 23.7909 32 26 32Z" fill="#40916C"/>
</svg>
